<svg width="64" height="64" viewBox="0 0 64 64" fill="none" xmlns="http://www.w3.org/2000/svg" aria-hidden="true">
<path fill-rule="evenodd" clip-rule="evenodd" d="M31.9971 1.06667C14.9177 1.06667 1.06665 14.916 1.06665 32.001C1.06665 45.6661 9.92916 57.2612 22.2212 61.3534C23.7689 61.6363 24.3329 60.6814 24.3329 59.8609C24.3329 59.1258 24.3063 57.1814 24.2911 54.6005C15.6869 56.4693 13.8714 50.4533 13.8714 50.4533C12.4643 46.8796 10.4362 45.9281 10.4362 45.9281C7.62763 44.0102 10.6489 44.0482 10.6489 44.0482C13.7537 44.2667 15.3868 47.2367 15.3868 47.2367C18.146 51.9629 22.6276 50.5975 24.3899 49.8056C24.6709 47.808 25.4704 46.4444 26.3534 45.6717C19.4848 44.8892 12.263 42.2365 12.263 30.3831C12.263 27.0048 13.4689 24.2456 15.4476 22.0827C15.1286 21.3003 14.0671 18.1556 15.7514 13.8961C15.7514 13.8961 18.3473 13.0644 24.2569 17.0655C26.7237 16.38 29.3709 16.0382 32.0009 16.0249C34.6291 16.0382 37.2744 16.38 39.745 17.0655C45.6508 13.0644 48.2428 13.8961 48.2428 13.8961C49.9311 18.1556 48.8695 21.3003 48.5525 22.0827C50.5348 24.2456 51.7312 27.0048 51.7312 30.3831C51.7312 42.2669 44.4979 44.8819 37.6086 45.6469C38.7176 46.6022 39.707 48.4898 39.707 51.3762C39.707 55.5102 39.669 58.8467 39.669 59.8609C39.669 60.6886 40.2273 61.6516 41.7959 61.3495C54.0783 57.2497 62.9333 45.664 62.9333 32.001C62.9333 14.916 49.082 1.06667 31.9971 1.06667Z" fill="currentColor"/>
</svg>
