<svg width="64" height="64" viewBox="0 0 64 64" fill="none" xmlns="http://www.w3.org/2000/svg" aria-hidden="true">
<path fill-rule="evenodd" clip-rule="evenodd" d="M8.53339 4.26667C6.177 4.26667 4.26672 6.17694 4.26672 8.53333V55.4667C4.26672 57.8231 6.177 59.7333 8.53339 59.7333H55.4667C57.8232 59.7333 59.7334 57.8231 59.7334 55.4667V8.53333C59.7334 6.17694 57.8232 4.26667 55.4667 4.26667H8.53339ZM13.0134 25.6H21.1201V51.2H13.0134V25.6ZM21.6534 17.088C21.6534 19.6212 19.5999 21.6747 17.0667 21.6747C14.5336 21.6747 12.4801 19.6212 12.4801 17.088C12.4801 14.5548 14.5336 12.5013 17.0667 12.5013C19.5999 12.5013 21.6534 14.5548 21.6534 17.088ZM51.2001 35.6571C51.2001 27.9555 46.2226 24.9614 41.2779 24.9614C39.6588 24.8816 38.0468 25.2211 36.6027 25.9459C35.5061 26.4963 34.358 27.7556 33.4727 29.9457H33.245V25.6019H25.6001V51.2201H33.733V37.5945C33.6154 36.199 34.062 34.3954 34.9757 33.3221C35.8894 32.2488 37.1964 31.9925 38.1874 31.8624H38.4964C41.0827 31.8624 43.0021 33.4635 43.0021 37.4984V51.2201H51.1348L51.2001 35.6571Z" fill="currentColor"/>
</svg>
