<svg width="64" height="64" viewBox="0 0 64 64" fill="none" xmlns="http://www.w3.org/2000/svg" aria-hidden="true">
<path fill-rule="evenodd" clip-rule="evenodd" d="M6.40006 12.8C5.22186 12.8 4.26672 13.7551 4.26672 14.9333C4.26672 16.1115 5.22186 17.0667 6.40006 17.0667H57.6001C58.7781 17.0667 59.7334 16.1115 59.7334 14.9333C59.7334 13.7551 58.7781 12.8 57.6001 12.8H6.40006ZM4.26672 32C4.26672 30.8218 5.22186 29.8667 6.40006 29.8667H57.6001C58.7781 29.8667 59.7334 30.8218 59.7334 32C59.7334 33.1782 58.7781 34.1333 57.6001 34.1333H6.40006C5.22186 34.1333 4.26672 33.1782 4.26672 32ZM4.26672 49.0667C4.26672 47.8886 5.22186 46.9333 6.40006 46.9333H57.6001C58.7781 46.9333 59.7334 47.8886 59.7334 49.0667C59.7334 50.2447 58.7781 51.2 57.6001 51.2H6.40006C5.22186 51.2 4.26672 50.2447 4.26672 49.0667Z" fill="currentColor"/>
</svg>
