<svg width="64" height="64" viewBox="0 0 64 64" fill="none" xmlns="http://www.w3.org/2000/svg" aria-hidden="true">
<path fill-rule="evenodd" clip-rule="evenodd" d="M40.2136 14.6831C42.9061 13.8092 46.0106 13.8249 48.5514 15.1306C54.4138 18.1429 56.9503 25.9068 54.5904 34.1333C53.5318 37.8236 51.6703 41.4068 47.7275 45.0236C43.7846 48.64 38.3162 50.7733 35.7791 50.7733C34.8703 50.7733 34.1334 50.057 34.1334 49.1733C34.1334 48.2897 34.8863 47.5733 35.7791 47.5733C38.6773 47.5733 41.2668 45.9964 44.3333 43.6736C46.68 41.8957 48.5125 39.6217 49.5276 37.6402C51.4681 33.8503 51.5338 28.5088 48.3982 27.0891C46.8925 28.7341 44.926 29.6937 42.5697 29.6937C37.4499 29.6937 34.4325 25.5749 34.5623 21.8457C34.6863 18.2816 36.9508 15.742 40.2136 14.6831ZM14.6136 14.6831C17.3063 13.8092 20.4104 13.8249 22.9515 15.1306C28.8138 18.1429 31.3501 25.9068 28.9905 34.1333C27.932 37.8236 26.0703 41.4068 22.1275 45.0236C18.1847 48.64 12.7162 50.7733 10.1791 50.7733C9.27026 50.7733 8.53345 50.057 8.53345 49.1733C8.53345 48.2897 9.28626 47.5733 10.1791 47.5733C13.0773 47.5733 15.6668 45.9964 18.7333 43.6736C21.0802 41.8957 22.9127 39.6217 23.9275 37.6402C25.8681 33.8503 25.9338 28.5088 22.7982 27.0891C21.2924 28.7341 19.3259 29.6937 16.9697 29.6937C11.8499 29.6937 8.83254 25.5749 8.96229 21.8457C9.08628 18.2816 11.3508 15.742 14.6136 14.6831Z" fill="currentColor"/>
</svg>
