<svg width="64" height="64" viewBox="0 0 64 64" fill="none" xmlns="http://www.w3.org/2000/svg" aria-hidden="true">
<path fill-rule="evenodd" clip-rule="evenodd" d="M42.6667 27.7333C42.6667 35.9808 35.9808 42.6667 27.7333 42.6667C19.4859 42.6667 12.8 35.9808 12.8 27.7333C12.8 19.4859 19.4859 12.8 27.7333 12.8C35.9808 12.8 42.6667 19.4859 42.6667 27.7333ZM39.7177 42.7345C36.4331 45.3624 32.2667 46.9333 27.7333 46.9333C17.1295 46.9333 8.53333 38.3372 8.53333 27.7333C8.53333 17.1295 17.1295 8.53334 27.7333 8.53334C38.3372 8.53334 46.9333 17.1295 46.9333 27.7333C46.9333 32.2667 45.3623 36.4331 42.7345 39.7177L54.842 51.8246C55.6749 52.6579 55.6749 54.0088 54.842 54.842C54.0087 55.6749 52.6579 55.6749 51.8246 54.842L39.7177 42.7345Z" fill="currentColor"/>
</svg>
